<?xml version="1.0" encoding="UTF-8"?>
<svg width="800" height="500" viewBox="0 0 800 500" fill="none" xmlns="http://www.w3.org/2000/svg">
  <!-- Background -->
  <rect width="800" height="500" fill="#F8FAFC"/>
  
  <!-- Browser Window -->
  <rect x="50" y="30" width="700" height="440" rx="8" fill="white" stroke="#E2E8F0" stroke-width="2"/>
  
  <!-- Browser Controls -->
  <circle cx="70" cy="45" r="6" fill="#F87171"/>
  <circle cx="90" cy="45" r="6" fill="#FBBF24"/>
  <circle cx="110" cy="45" r="6" fill="#34D399"/>
  
  <!-- Hero Section -->
  <rect x="70" y="80" width="660" height="60" rx="4" fill="#3B82F6" opacity="0.1"/>
  <rect x="70" y="80" width="200" height="8" rx="4" fill="#3B82F6"/>
  
  <!-- Main Content -->
  <rect x="70" y="160" width="300" height="20" rx="4" fill="#1E293B"/>
  <rect x="70" y="190" width="400" height="12" rx="4" fill="#64748B"/>
  <rect x="70" y="210" width="380" height="12" rx="4" fill="#64748B"/>
  
  <!-- CTA Button -->
  <rect x="70" y="240" width="120" height="40" rx="20" fill="#3B82F6"/>
  
  <!-- Feature Boxes -->
  <rect x="70" y="320" width="200" height="140" rx="8" fill="#F1F5F9"/>
  <rect x="90" y="340" width="40" height="40" rx="8" fill="#3B82F6"/>
  <rect x="90" y="390" width="120" height="8" rx="4" fill="#CBD5E1"/>
  <rect x="90" y="405" width="80" height="8" rx="4" fill="#CBD5E1"/>
  
  <rect x="290" y="320" width="200" height="140" rx="8" fill="#F1F5F9"/>
  <rect x="310" y="340" width="40" height="40" rx="8" fill="#10B981"/>
  <rect x="310" y="390" width="120" height="8" rx="4" fill="#CBD5E1"/>
  <rect x="310" y="405" width="80" height="8" rx="4" fill="#CBD5E1"/>
  
  <rect x="510" y="320" width="200" height="140" rx="8" fill="#F1F5F9"/>
  <rect x="530" y="340" width="40" height="40" rx="8" fill="#F59E0B"/>
  <rect x="530" y="390" width="120" height="8" rx="4" fill="#CBD5E1"/>
  <rect x="530" y="405" width="80" height="8" rx="4" fill="#CBD5E1"/>
  
  <!-- Decorative Elements -->
  <circle cx="750" cy="120" r="8" fill="#3B82F6" opacity="0.2"/>
  <circle cx="650" cy="450" r="12" fill="#10B981" opacity="0.2"/>
  <circle cx="100" cy="450" r="10" fill="#F59E0B" opacity="0.2"/>
  
  <!-- Laptop Frame -->
  <rect x="200" y="40" width="400" height="10" rx="4" fill="#E2E8F0"/>
  <rect x="350" y="50" width="100" height="10" rx="4" fill="#E2E8F0"/>
</svg>
